<svg xmlns="http://www.w3.org/2000/svg" xmlns:xlink="http://www.w3.org/1999/xlink" version="1.1" width="1000" height="1000" viewBox="0 0 1000 1000" xml:space="preserve">
<desc>Created with Fabric.js 3.5.0</desc>
<defs>
</defs>
<rect x="0" y="0" width="100%" height="100%" fill="rgba(255,255,255,0)"/>
<g transform="matrix(0.5859 0 0 0.5859 148.2123 849.4925)" id="709231">
<g style="" vector-effect="non-scaling-stroke">
		<g transform="matrix(1 0 0 1 0 0)">
<rect style="stroke: none; stroke-width: 1; stroke-dasharray: none; stroke-linecap: butt; stroke-dashoffset: 0; stroke-linejoin: round; stroke-miterlimit: 2; is-custom-font: none; font-file-url: none; fill: none; fill-rule: evenodd; opacity: 1;" x="-200" y="-200" rx="0" ry="0" width="400" height="400"/>
</g>
		<g transform="matrix(1 0 0 1 0 0)">
<path style="stroke: none; stroke-width: 1; stroke-dasharray: none; stroke-linecap: butt; stroke-dashoffset: 0; stroke-linejoin: round; stroke-miterlimit: 2; is-custom-font: none; font-file-url: none; fill: rgb(255,255,255); fill-rule: nonzero; opacity: 1;" transform=" translate(-256, -256)" d="M 161.014 464.013 c 193.208 0 298.885 -160.071 298.885 -298.885 c 0 -4.546 0 -9.072 -0.307 -13.578 c 20.558 -14.871 38.305 -33.282 52.408 -54.374 c -19.171 8.495 -39.51 14.065 -60.334 16.527 c 21.924 -13.124 38.343 -33.782 46.182 -58.102 c -20.619 12.235 -43.18 20.859 -66.703 25.498 c -19.862 -21.121 -47.602 -33.112 -76.593 -33.112 c -57.682 0 -105.145 47.464 -105.145 105.144 c 0 8.002 0.914 15.979 2.722 23.773 c -84.418 -4.231 -163.18 -44.161 -216.494 -109.752 c -27.724 47.726 -13.379 109.576 32.522 140.226 c -16.715 -0.495 -33.071 -5.005 -47.677 -13.148 l 0 1.331 c 0.014 49.814 35.447 93.111 84.275 102.974 c -15.464 4.217 -31.693 4.833 -47.431 1.802 c 13.727 42.685 53.311 72.108 98.14 72.95 c -37.19 29.227 -83.157 45.103 -130.458 45.056 c -8.358 -0.016 -16.708 -0.522 -25.006 -1.516 c 48.034 30.825 103.94 47.18 161.014 47.104" stroke-linecap="round"/>
</g>
</g>
</g>
<g transform="matrix(12.5 0 0 12.5 148.2219 500)" id="360422">
<g style="" vector-effect="non-scaling-stroke">
		<g transform="matrix(1 0 0 1 0 2)" id="Layer_1">
<path style="stroke: none; stroke-width: 1; stroke-dasharray: none; stroke-linecap: butt; stroke-dashoffset: 0; stroke-linejoin: miter; stroke-miterlimit: 4; is-custom-font: none; font-file-url: none; fill: rgb(255,255,255); fill-rule: nonzero; opacity: 1;" transform=" translate(-12, -14)" d="M 8 19 H 5 V 9 h 3 V 19 z M 19 19 h -3 v -5.342 c 0 -1.392 -0.496 -2.085 -1.479 -2.085 c -0.779 0 -1.273 0.388 -1.521 1.165 C 13 14 13 19 13 19 h -3 c 0 0 0.04 -9 0 -10 h 2.368 l 0.183 2 h 0.062 c 0.615 -1 1.598 -1.678 2.946 -1.678 c 1.025 0 1.854 0.285 2.487 1.001 C 18.683 11.04 19 12.002 19 13.353 V 19 z" stroke-linecap="round"/>
</g>
		<g transform="matrix(1 0 0 1 -5.5 -5.5)" id="Layer_1">
<ellipse style="stroke: none; stroke-width: 1; stroke-dasharray: none; stroke-linecap: butt; stroke-dashoffset: 0; stroke-linejoin: miter; stroke-miterlimit: 4; is-custom-font: none; font-file-url: none; fill: rgb(255,255,255); fill-rule: nonzero; opacity: 1;" cx="0" cy="0" rx="1.55" ry="1.5"/>
</g>
</g>
</g>
<g transform="matrix(5.2917 0 0 5.2917 148.4877 150.8154)" id="984324">
<g style="" vector-effect="non-scaling-stroke">
		<g transform="matrix(1 0 0 1 -0.0064 0.8946)" id="Layer_1">
<path style="stroke: none; stroke-width: 1; stroke-dasharray: none; stroke-linecap: butt; stroke-dashoffset: 0; stroke-linejoin: miter; stroke-miterlimit: 4; is-custom-font: none; font-file-url: none; fill: rgb(255,255,255); fill-rule: evenodd; opacity: 1;" transform=" translate(1134.6599, -1686.9381)" d="M -1134.6598 1662.9163 c -13.601 0 -24.63 11.0267 -24.63 24.6299 c 0 10.8821 7.0573 20.1144 16.8435 23.3713 c 1.2308 0.2279 1.6829 -0.5345 1.6829 -1.1849 c 0 -0.587 -0.0227 -2.5276 -0.0334 -4.5857 c -6.8521 1.4901 -8.2979 -2.906 -8.2979 -2.906 c -1.1205 -2.8467 -2.7347 -3.6039 -2.7347 -3.6039 c -2.2349 -1.5287 0.1685 -1.4972 0.1685 -1.4972 c 2.473 0.1737 3.7755 2.5385 3.7755 2.5385 c 2.1967 3.7651 5.7618 2.6765 7.1675 2.0472 c 0.2211 -1.5917 0.8591 -2.6786 1.5637 -3.2936 c -5.4707 -0.6226 -11.2218 -2.7347 -11.2218 -12.1722 c 0 -2.6888 0.9623 -4.8861 2.538 -6.611 c -0.2557 -0.6206 -1.0989 -3.1255 0.2386 -6.5183 c 0 0 2.0684 -0.6616 6.7747 2.525 c 1.9648 -0.5458 4.0719 -0.8195 6.165 -0.829 c 2.093 0.0095 4.2017 0.2832 6.17 0.829 c 4.7012 -3.1866 6.7665 -2.525 6.7665 -2.525 c 1.3406 3.3928 0.4974 5.8977 0.2417 6.5183 c 1.5793 1.7249 2.5348 3.9221 2.5348 6.611 c 0 9.4602 -5.7618 11.5428 -11.2465 12.1527 c 0.8834 0.7644 1.6704 2.2632 1.6704 4.561 c 0 3.2955 -0.0282 5.9479 -0.0282 6.7592 c 0 0.6556 0.4432 1.4236 1.6915 1.1818 c 9.7812 -3.2605 16.8296 -12.4896 16.8296 -23.3682 C -1110.0299 1673.943 -1121.0574 1662.9163 -1134.6598 1662.9163 z" stroke-linecap="round"/>
</g>
		<g transform="matrix(1 0 0 1 -15.6284 12.0874)" id="Layer_1">
<path style="stroke: none; stroke-width: 1; stroke-dasharray: none; stroke-linecap: butt; stroke-dashoffset: 0; stroke-linejoin: miter; stroke-miterlimit: 4; is-custom-font: none; font-file-url: none; fill: rgb(255,255,255); fill-rule: nonzero; opacity: 1;" transform=" translate(1150.2819, -1698.1309)" d="M -1149.9611 1698.2793 c -0.0542 0.1227 -0.2469 0.1593 -0.4222 0.0753 c -0.1788 -0.0804 -0.2788 -0.2473 -0.2211 -0.37 c 0.053 -0.126 0.2457 -0.161 0.4242 -0.0769 C -1150.0013 1697.9882 -1149.8993 1698.1566 -1149.9611 1698.2793 L -1149.9611 1698.2793 z M -1150.2642 1698.0547" stroke-linecap="round"/>
</g>
		<g transform="matrix(1 0 0 1 -14.5963 13.0359)" id="Layer_1">
<path style="stroke: none; stroke-width: 1; stroke-dasharray: none; stroke-linecap: butt; stroke-dashoffset: 0; stroke-linejoin: miter; stroke-miterlimit: 4; is-custom-font: none; font-file-url: none; fill: rgb(255,255,255); fill-rule: nonzero; opacity: 1;" transform=" translate(1149.2498, -1699.0793)" d="M -1148.9634 1699.3922 c -0.1174 0.1086 -0.3473 0.0581 -0.5031 -0.1139 c -0.1613 -0.1718 -0.1912 -0.4016 -0.072 -0.5118 c 0.1211 -0.1088 0.3438 -0.0579 0.505 0.1139 C -1148.8721 1699.0541 -1148.8407 1699.2819 -1148.9634 1699.3922 L -1148.9634 1699.3922 z M -1149.1984 1699.14" stroke-linecap="round"/>
</g>
		<g transform="matrix(1 0 0 1 -13.6123 14.3669)" id="Layer_1">
<path style="stroke: none; stroke-width: 1; stroke-dasharray: none; stroke-linecap: butt; stroke-dashoffset: 0; stroke-linejoin: miter; stroke-miterlimit: 4; is-custom-font: none; font-file-url: none; fill: rgb(255,255,255); fill-rule: nonzero; opacity: 1;" transform=" translate(1148.2658, -1700.4104)" d="M -1147.9922 1700.8105 c -0.151 0.1051 -0.3979 0.0067 -0.5505 -0.2123 c -0.151 -0.2191 -0.151 -0.4819 0.0035 -0.5872 c 0.1526 -0.1051 0.396 -0.0104 0.5505 0.2068 C -1147.8381 1700.4406 -1147.8381 1700.7034 -1147.9922 1700.8105 L -1147.9922 1700.8105 z M -1147.9922 1700.8105" stroke-linecap="round"/>
</g>
		<g transform="matrix(1 0 0 1 -12.3925 15.776)" id="Layer_1">
<path style="stroke: none; stroke-width: 1; stroke-dasharray: none; stroke-linecap: butt; stroke-dashoffset: 0; stroke-linejoin: miter; stroke-miterlimit: 4; is-custom-font: none; font-file-url: none; fill: rgb(255,255,255); fill-rule: nonzero; opacity: 1;" transform=" translate(1147.046, -1701.8195)" d="M -1146.6619 1702.1812 c -0.1351 0.1489 -0.4227 0.1086 -0.6329 -0.0945 c -0.2155 -0.1984 -0.2753 -0.4803 -0.1403 -0.6293 c 0.1371 -0.149 0.4263 -0.1072 0.6381 0.0944 C -1146.5831 1701.7501 -1146.5182 1702.0337 -1146.6619 1702.1812 L -1146.6619 1702.1812 z M -1146.6619 1702.1812" stroke-linecap="round"/>
</g>
		<g transform="matrix(1 0 0 1 -10.6828 16.7789)" id="Layer_1">
<path style="stroke: none; stroke-width: 1; stroke-dasharray: none; stroke-linecap: butt; stroke-dashoffset: 0; stroke-linejoin: miter; stroke-miterlimit: 4; is-custom-font: none; font-file-url: none; fill: rgb(255,255,255); fill-rule: nonzero; opacity: 1;" transform=" translate(1145.3363, -1702.8225)" d="M -1144.8265 1702.9769 c -0.0597 0.1927 -0.3365 0.2804 -0.6154 0.1984 c -0.2788 -0.0845 -0.4608 -0.3103 -0.4047 -0.5051 c 0.0577 -0.1943 0.3361 -0.2855 0.6169 -0.1979 C -1144.9512 1702.5563 -1144.7688 1702.7805 -1144.8265 1702.9769 L -1144.8265 1702.9769 z M -1144.8265 1702.9769" stroke-linecap="round"/>
</g>
		<g transform="matrix(1 0 0 1 -8.6865 17.0888)" id="Layer_1">
<path style="stroke: none; stroke-width: 1; stroke-dasharray: none; stroke-linecap: butt; stroke-dashoffset: 0; stroke-linejoin: miter; stroke-miterlimit: 4; is-custom-font: none; font-file-url: none; fill: rgb(255,255,255); fill-rule: nonzero; opacity: 1;" transform=" translate(1143.34, -1703.1323)" d="M -1142.8107 1703.1243 c 0.0067 0.2031 -0.2299 0.3716 -0.5226 0.3752 c -0.2944 0.0067 -0.533 -0.1577 -0.5361 -0.3577 c 0 -0.2052 0.2313 -0.3717 0.5258 -0.3768 C -1143.0509 1702.7594 -1142.8107 1702.9227 -1142.8107 1703.1243 L -1142.8107 1703.1243 z M -1142.8107 1703.1243" stroke-linecap="round"/>
</g>
		<g transform="matrix(1 0 0 1 -6.8048 16.8549)" id="Layer_1">
<path style="stroke: none; stroke-width: 1; stroke-dasharray: none; stroke-linecap: butt; stroke-dashoffset: 0; stroke-linejoin: miter; stroke-miterlimit: 4; is-custom-font: none; font-file-url: none; fill: rgb(255,255,255); fill-rule: nonzero; opacity: 1;" transform=" translate(1141.4583, -1702.8983)" d="M -1140.9351 1702.8052 c 0.035 0.198 -0.1686 0.4015 -0.4594 0.4557 c -0.2859 0.0526 -0.5504 -0.0701 -0.587 -0.2665 c -0.0354 -0.2031 0.1716 -0.4066 0.4573 -0.4592 C -1141.233 1702.4846 -1140.9722 1702.6036 -1140.9351 1702.8052 L -1140.9351 1702.8052 z M -1140.9351 1702.8052" stroke-linecap="round"/>
</g>
</g>
</g>
</svg>